<svg height="512pt" viewBox="0 0 512 511" width="512pt" xmlns="http://www.w3.org/2000/svg"><path d="m503.464844 458.039062v28.84375c-.027344 9.414063-7.652344 17.039063-17.066406 17.066407h-460.796876c-9.414062-.027344-17.039062-7.652344-17.066406-17.066407v-28.84375c-.003906-8.066406 5.664063-15.019531 13.566406-16.640624l105.386719-22.1875c25.664063-5.4375 44.792969-26.953126 47.1875-53.078126l1.109375-12.03125 1.453125-16.382812c18.453125 16.269531 41.5 26.40625 65.960938 29.011719 4.253906.445312 8.523437.675781 12.800781.683593 19.011719.03125 37.746094-4.539062 54.613281-13.3125 8.714844-4.410156 16.832031-9.914062 24.148438-16.382812l2.5625 28.414062c2.394531 26.125 21.523437 47.640626 47.1875 53.078126l105.386719 22.1875c7.902343 1.621093 13.570312 8.574218 13.566406 16.640624zm0 0" fill="#bfa885"/><path d="m477.867188 458.039062v28.84375c-.027344 9.414063-7.652344 17.039063-17.066407 17.066407h-435.199219c-9.414062-.027344-17.039062-7.652344-17.066406-17.066407v-28.84375c-.003906-8.066406 5.664063-15.019531 13.566406-16.640624l105.386719-22.1875c25.664063-5.4375 44.792969-26.953126 47.1875-53.078126l1.109375-12.03125c16.867188 8.773438 35.605469 13.34375 54.613282 13.3125 4.277343-.007812 8.550781-.238281 12.800781-.683593 4.253906.445312 8.523437.675781 12.800781.683593 19.011719.03125 37.746094-4.539062 54.613281-13.3125l1.109375 12.03125c2.398438 26.125 21.527344 47.640626 47.1875 53.078126l105.386719 22.1875c7.902344 1.621093 13.574219 8.574218 13.570313 16.640624zm0 0" fill="#ffe0b2"/><path d="m435.199219 172.769531v109.3125h-358.398438v-109.3125l136.53125-145.40625 2.5625-2.734375c8.3125-.933594 16.726563.210938 24.488281 3.328125 7.015626 2.792969 12.632813 8.257813 15.617188 15.191407 2.523438-8.601563 8.703125-15.65625 16.894531-19.285157 7.941407-3.089843 16.699219-3.390625 24.832031-.855469zm0 0" fill="#4e342e"/><path d="m409.601562 172.769531v109.3125h-332.800781v-109.3125l136.53125-145.40625c7.65625 2.628907 13.851563 8.359375 17.066407 15.785157 1.789062-5.921876 5.257812-11.199219 9.984374-15.191407 7.015626 2.792969 12.632813 8.257813 15.617188 15.191407 2.523438-8.601563 8.703125-15.65625 16.894531-19.285157zm0 0" fill="#795548"/><path d="m136.535156 119.949219v128c0 65.976562 53.484375 119.464843 119.464844 119.464843s119.464844-53.488281 119.464844-119.464843v-128zm0 0" fill="#ffe0b2"/><path d="m136.535156 188.214844s25.597656-68.265625 119.464844-68.265625 119.464844 68.265625 119.464844 68.265625l25.601562-68.265625-76.800781-68.269531h-153.597656l-51.203125 76.800781 8.535156 8.535156zm0 0" fill="#795548"/><path d="m153.601562 128.480469c0 28.277343-22.925781 51.199219-51.203124 51.199219-28.277344 0-51.199219-22.921876-51.199219-51.199219 0-28.277344 22.921875-51.199219 51.199219-51.199219 28.277343 0 51.203124 22.921875 51.203124 51.199219zm0 0" fill="#e91e63"/><path d="m119.464844 128.480469c0 9.425781-7.640625 17.066406-17.066406 17.066406-9.425782 0-17.066407-7.640625-17.066407-17.066406s7.640625-17.066407 17.066407-17.066407c9.425781 0 17.066406 7.640626 17.066406 17.066407zm0 0" fill="#ad1457"/><path d="m136.535156 282.082031c0 28.277344-22.925781 51.199219-51.203125 51.199219-28.277343 0-51.199219-22.921875-51.199219-51.199219 0-28.277343 22.921876-51.199219 51.199219-51.199219 28.277344 0 51.203125 22.921876 51.203125 51.199219zm0 0" fill="#e91e63"/><path d="m102.398438 282.082031c0 9.425781-7.640626 17.066407-17.066407 17.066407s-17.066406-7.640626-17.066406-17.066407 7.640625-17.066406 17.066406-17.066406 17.066407 7.640625 17.066407 17.066406zm0 0" fill="#ad1457"/><path d="m460.800781 128.480469c0 28.277343-22.921875 51.199219-51.199219 51.199219-4.320312-.011719-8.617187-.554688-12.800781-1.621094-22.605469-5.8125-38.40625-26.195313-38.40625-49.535156 0-23.339844 15.800781-43.71875 38.40625-49.535157 4.171875-1.132812 8.476563-1.707031 12.800781-1.707031 13.578126 0 26.601563 5.394531 36.203126 14.996094 9.601562 9.601562 14.996093 22.625 14.996093 36.203125zm0 0" fill="#ad1457"/><path d="m435.199219 128.480469c-.054688 23.332031-15.824219 43.691406-38.398438 49.578125-22.605469-5.8125-38.40625-26.195313-38.40625-49.535156 0-23.339844 15.800781-43.71875 38.40625-49.535157 22.574219 5.828125 38.363281 26.175781 38.398438 49.492188zm0 0" fill="#e91e63"/><path d="m426.667969 128.480469c0 9.425781-7.640625 17.066406-17.066407 17.066406-9.425781 0-17.066406-7.640625-17.066406-17.066406s7.640625-17.066407 17.066406-17.066407c9.425782 0 17.066407 7.640626 17.066407 17.066407zm0 0" fill="#ad1457"/><path d="m477.867188 282.082031c0 28.277344-22.921876 51.199219-51.199219 51.199219-4.316407-.011719-8.617188-.558594-12.800781-1.621094-22.605469-5.816406-38.40625-26.195312-38.40625-49.535156s15.800781-43.722656 38.40625-49.535156c4.171874-1.136719 8.476562-1.710938 12.800781-1.707032 28.277343 0 51.199219 22.921876 51.199219 51.199219zm0 0" fill="#ad1457"/><path d="m452.265625 282.082031c-.054687 23.328125-15.824219 43.691407-38.398437 49.578125-22.605469-5.816406-38.40625-26.195312-38.40625-49.535156s15.800781-43.722656 38.40625-49.535156c22.574218 5.828125 38.363281 26.175781 38.398437 49.492187zm0 0" fill="#e91e63"/><path d="m443.734375 282.082031c0 9.425781-7.640625 17.066407-17.066406 17.066407s-17.066407-7.640626-17.066407-17.066407 7.640626-17.066406 17.066407-17.066406 17.066406 7.640625 17.066406 17.066406zm0 0" fill="#ad1457"/><path d="m230.398438 60.214844c0 28.277344-22.921876 51.199218-51.199219 51.199218-28.277344 0-51.199219-22.921874-51.199219-51.199218s22.921875-51.199219 51.199219-51.199219c28.277343 0 51.199219 22.921875 51.199219 51.199219zm0 0" fill="#e91e63"/><path d="m196.265625 60.214844c0 9.425781-7.640625 17.066406-17.066406 17.066406s-17.066407-7.640625-17.066407-17.066406c0-9.425782 7.640626-17.066406 17.066407-17.066406s17.066406 7.640624 17.066406 17.066406zm0 0" fill="#ad1457"/><path d="m384 60.214844c0 28.277344-22.921875 51.199218-51.199219 51.199218-28.277343 0-51.199219-22.921874-51.199219-51.199218s22.921876-51.199219 51.199219-51.199219c28.277344 0 51.199219 22.921875 51.199219 51.199219zm0 0" fill="#e91e63"/><path d="m349.867188 60.214844c0 9.425781-7.640626 17.066406-17.066407 17.066406s-17.066406-7.640625-17.066406-17.066406c0-9.425782 7.640625-17.066406 17.066406-17.066406s17.066407 7.640624 17.066407 17.066406zm0 0" fill="#ad1457"/><path d="m491.671875 433.011719-105.386719-22.1875c-22.050781-4.550781-38.496094-23.042969-40.445312-45.472657l-2.210938-24.390624c11.328125-10.648438 20.621094-23.277344 27.417969-37.265626 10.082031 26.117188 36.949219 41.726563 64.628906 37.550782 27.683594-4.171875 48.75-27.011719 50.6875-54.9375 1.933594-27.925782-15.789062-53.449219-42.628906-61.402344v-47.476562c24.210937-16.894532 32.4375-48.945313 19.351563-75.410157-13.085938-26.464843-43.550782-39.386719-71.671876-30.402343 4.820313-24.671876-6.335937-49.714844-27.894531-62.632813-21.5625-12.917969-48.90625-10.941406-68.386719 4.945313-10.203124-2.324219-20.90625-.804688-30.0625 4.265624-3.941406 2.363282-7.414062 5.4375-10.238281 9.0625-9.917969-8.300781-22.722656-12.335937-35.609375-11.21875-19.023437-17.292968-46.984375-20.449218-69.378906-7.835937-22.398438 12.617187-34.191406 38.167969-29.257812 63.394531-28.132813-9.011718-58.628907 3.910156-71.71875 30.394532-13.089844 26.480468-4.84375 58.554687 19.398437 75.4375v47.476562c-26.824219 7.960938-44.53125 33.472656-42.601563 61.390625 1.929688 27.914063 22.980469 50.746094 50.644532 54.9375 27.667968 4.191406 54.535156-11.386719 64.644531-37.476563 6.804687 13.960938 16.097656 26.570313 27.417969 37.203126l-2.210938 24.371093c-1.949218 22.433594-18.394531 40.921875-40.445312 45.476563l-105.386719 22.183594c-11.832031 2.539062-20.2929688 12.976562-20.328125 25.070312v28.820312c0 14.136719 11.460938 25.597657 25.601562 25.597657h460.796876c14.140624 0 25.601562-11.460938 25.601562-25.597657v-28.820312c-.042969-12.089844-8.503906-22.515625-20.328125-25.050781zm-22.339844-150.929688c0 23.5625-19.101562 42.667969-42.664062 42.667969-23.566407 0-42.667969-19.105469-42.667969-42.667969 0-23.566406 19.101562-42.667969 42.667969-42.667969 23.550781.027344 42.636719 19.113282 42.664062 42.667969zm-42.664062-59.734375c-16.070313 0-31.457031 6.492188-42.667969 18.003906v-57.980468c13.304688 6.40625 28.527344 7.59375 42.667969 3.328125zm25.597656-93.867187c0 23.566406-19.101563 42.667969-42.664063 42.667969-23.566406 0-42.667968-19.101563-42.667968-42.667969 0-23.5625 19.101562-42.664063 42.667968-42.664063 23.550782.027344 42.636719 19.113282 42.664063 42.664063zm-76.800781-68.265625c0 23.5625-19.101563 42.667968-42.664063 42.667968-23.566406 0-42.667969-19.105468-42.667969-42.667968s19.101563-42.667969 42.667969-42.667969c23.550781.03125 42.636719 19.117187 42.664063 42.667969zm-196.265625-42.667969c23.566406 0 42.667969 19.105469 42.667969 42.667969s-19.101563 42.667968-42.667969 42.667968c-23.5625 0-42.664063-19.105468-42.664063-42.667968.027344-23.550782 19.113282-42.636719 42.664063-42.667969zm-119.464844 110.933594c0-23.5625 19.101563-42.664063 42.664063-42.664063 23.566406 0 42.667968 19.101563 42.667968 42.664063 0 23.566406-19.101562 42.667969-42.667968 42.667969-23.550782-.027344-42.636719-19.113282-42.664063-42.667969zm25.597656 57.175781c14.140625 4.265625 29.363281 3.078125 42.667969-3.328125v58.023437c-11.210938-11.511718-26.597656-18.003906-42.667969-18.003906zm0 139.09375c-23.5625 0-42.664062-19.105469-42.664062-42.667969 0-23.566406 19.101562-42.667969 42.664062-42.667969 23.566407 0 42.667969 19.101563 42.667969 42.667969-.027344 23.550781-19.113281 42.636719-42.667969 42.667969zm59.734375-76.800781v-77.738281c13.769532-13.980469 19.738282-33.859376 15.949219-53.113282 5.878906 1.886719 12.011719 2.847656 18.183594 2.851563v17.066406c0 4.710937 3.820312 8.53125 8.535156 8.53125 4.710937 0 8.53125-3.820313 8.53125-8.53125v-19.585937c6.097656-1.824219 11.859375-4.613282 17.066406-8.269532v27.855469c0 4.710937 3.820313 8.53125 8.535157 8.53125 4.710937 0 8.53125-3.820313 8.53125-8.53125v-42.667969c-.03125-.90625-.214844-1.796875-.535157-2.644531 10.84375-17.234375 12.050781-38.839844 3.191407-57.171875 6.378906 1.367188 11.820312 5.5 14.847656 11.277344 1.148437 3.5 4.414062 5.867187 8.097656 5.871094h.324219c3.792969-.144532 7.035156-2.777344 7.953125-6.457032 1.648437-5.121094 5.019531-9.507812 9.539062-12.417968 2.265625-1.265626 4.75-2.097657 7.324219-2.449219-11.113281 19.042969-10.726563 42.679687.996094 61.347656-.320313.847656-.503907 1.738281-.535157 2.644531v42.667969c0 4.710937 3.820313 8.53125 8.53125 8.53125 4.714844 0 8.535157-3.820313 8.535157-8.53125v-27.855469c5.207031 3.65625 10.96875 6.445313 17.066406 8.269532v19.585937c0 4.710937 3.820313 8.53125 8.53125 8.53125 4.714844 0 8.535156-3.820313 8.535156-8.53125v-17.066406c6.171875-.003907 12.304688-.964844 18.183594-2.851563-3.789063 19.253906 2.179687 39.132813 15.949219 53.113282v77.738281c-.019532 43.535156-25.507813 83.035156-65.167969 101-39.660156 17.960937-86.160156 11.0625-118.894531-17.640625-24.019532-21.042969-37.796875-51.425782-37.804688-83.359375zm349.867188 238.933593c0 4.710938-3.820313 8.53125-8.535156 8.53125h-460.796876c-4.714843 0-8.535156-3.820312-8.535156-8.53125v-28.820312c0-4.035156 2.824219-7.519531 6.777344-8.351562l105.394531-22.1875c29.378907-6.074219 51.296875-30.699219 53.921875-60.585938l1.167969-12.929688c1.253906.855469 2.558594 1.597657 3.839844 2.390626 1.015625.648437 2.03125 1.304687 3.0625 1.917968 2.5625 1.511719 5.207031 2.921875 7.871093 4.269532.5.246093.972657.527343 1.472657.777343 3.1875 1.527344 6.425781 2.917969 9.722656 4.164063.945313.367187 1.925781.664062 2.882813 1.003906 2.378906.855469 4.769531 1.648438 7.203124 2.355469.757813.222656 1.519532.453125 2.285157.667969-.476563 18.847656-4.710938 47.496093-23.890625 66.6875-2.21875 2.140624-3.109375 5.3125-2.328125 8.296874.78125 2.984376 3.109375 5.316407 6.09375 6.09375 2.984375.78125 6.15625-.105468 8.296875-2.324218 22.230468-22.230469 27.855468-53.761719 28.800781-75.425782.761719.101563 1.527344.179688 2.289063.253907 1.125.128906 2.242187.289062 3.371093.382812 3.546875.300781 7.125.488281 10.707031.488281 3.585938 0 7.160157-.1875 10.710938-.488281 1.125-.09375 2.242188-.253906 3.414062-.382812 2.421876-.265625 4.84375-.578125 7.242188-.988281 1.28125-.214844 2.5625-.460938 3.824219-.71875 2.273437-.460938 4.550781-.980469 6.828125-1.5625 1.234375-.3125 2.457031-.628907 3.675781-.980469 2.421875-.707031 4.8125-1.5 7.195313-2.34375.964843-.351563 1.9375-.648438 2.890624-1.015625 3.292969-1.257813 6.535157-2.648438 9.71875-4.164063.503907-.25.984376-.539062 1.484376-.785156 2.664062-1.328125 5.28125-2.75 7.851562-4.269531 1.042969-.605469 2.039062-1.269532 3.066406-1.910156 1.277344-.800782 2.558594-1.554688 3.847656-2.398438l1.167969 12.929688c2.625 29.886718 24.542969 54.511718 53.921875 60.585937l105.394532 22.1875c3.953124.832031 6.777343 4.316406 6.777343 8.351563zm0 0"/><path d="m102.398438 154.082031c14.140624 0 25.601562-11.460937 25.601562-25.601562 0-14.136719-11.460938-25.597657-25.601562-25.597657-14.136719 0-25.597657 11.460938-25.597657 25.597657 0 14.140625 11.460938 25.601562 25.597657 25.601562zm0-34.132812c4.714843 0 8.535156 3.820312 8.535156 8.53125 0 4.714843-3.820313 8.535156-8.535156 8.535156-4.710938 0-8.53125-3.820313-8.53125-8.535156 0-4.710938 3.820312-8.53125 8.53125-8.53125zm0 0"/><path d="m179.199219 85.816406c14.140625 0 25.601562-11.464844 25.601562-25.601562 0-14.136719-11.460937-25.601563-25.601562-25.601563-14.136719 0-25.597657 11.464844-25.597657 25.601563 0 14.136718 11.460938 25.601562 25.597657 25.601562zm0-34.136718c4.714843 0 8.535156 3.820312 8.535156 8.535156 0 4.710937-3.820313 8.535156-8.535156 8.535156-4.710938 0-8.53125-3.824219-8.53125-8.535156 0-4.714844 3.820312-8.535156 8.53125-8.535156zm0 0"/><path d="m332.800781 85.816406c14.136719 0 25.597657-11.464844 25.597657-25.601562 0-14.136719-11.460938-25.601563-25.597657-25.601563-14.140625 0-25.601562 11.464844-25.601562 25.601563 0 14.136718 11.460937 25.601562 25.601562 25.601562zm0-34.136718c4.710938 0 8.53125 3.820312 8.53125 8.535156 0 4.710937-3.820312 8.535156-8.53125 8.535156-4.714843 0-8.535156-3.824219-8.535156-8.535156 0-4.714844 3.820313-8.535156 8.535156-8.535156zm0 0"/><path d="m85.332031 256.480469c-14.136719 0-25.597656 11.460937-25.597656 25.601562 0 14.136719 11.460937 25.597657 25.597656 25.597657 14.140625 0 25.601563-11.460938 25.601563-25.597657 0-14.140625-11.460938-25.601562-25.601563-25.601562zm0 34.132812c-4.710937 0-8.53125-3.820312-8.53125-8.53125 0-4.714843 3.820313-8.535156 8.53125-8.535156 4.714844 0 8.535157 3.820313 8.535157 8.535156 0 4.710938-3.820313 8.53125-8.535157 8.53125zm0 0"/><path d="m409.601562 154.082031c14.136719 0 25.597657-11.460937 25.597657-25.601562 0-14.136719-11.460938-25.597657-25.597657-25.597657-14.140624 0-25.601562 11.460938-25.601562 25.597657 0 14.140625 11.460938 25.601562 25.601562 25.601562zm0-34.132812c4.710938 0 8.53125 3.820312 8.53125 8.53125 0 4.714843-3.820312 8.535156-8.53125 8.535156-4.714843 0-8.535156-3.820313-8.535156-8.535156 0-4.710938 3.820313-8.53125 8.535156-8.53125zm0 0"/><path d="m401.066406 282.082031c0 14.136719 11.460938 25.597657 25.601563 25.597657 14.136719 0 25.597656-11.460938 25.597656-25.597657 0-14.140625-11.460937-25.601562-25.597656-25.601562-14.140625 0-25.601563 11.460937-25.601563 25.601562zm34.132813 0c0 4.710938-3.820313 8.53125-8.53125 8.53125-4.714844 0-8.535157-3.820312-8.535157-8.53125 0-4.714843 3.820313-8.535156 8.535157-8.535156 4.710937 0 8.53125 3.820313 8.53125 8.535156zm0 0"/><path d="m256 145.546875c4.710938 0 8.535156-3.820313 8.535156-8.53125v-42.667969c0-4.710937-3.824218-8.53125-8.535156-8.53125s-8.535156 3.820313-8.535156 8.53125v42.667969c0 4.710937 3.824218 8.53125 8.535156 8.53125zm0 0"/><path d="m204.800781 222.347656c4.710938 0 8.53125-3.820312 8.53125-8.53125v-25.601562c0-4.714844-3.820312-8.535156-8.53125-8.535156-4.714843 0-8.535156 3.820312-8.535156 8.535156v25.601562c0 4.710938 3.820313 8.53125 8.535156 8.53125zm0 0"/><path d="m307.199219 222.347656c4.714843 0 8.535156-3.820312 8.535156-8.53125v-25.601562c0-4.714844-3.820313-8.535156-8.535156-8.535156-4.710938 0-8.53125 3.820312-8.53125 8.535156v25.601562c0 4.710938 3.820312 8.53125 8.53125 8.53125zm0 0"/><path d="m205.824219 283.789062c4.84375 23.863282 25.828125 41.011719 50.175781 41.011719s45.332031-17.148437 50.175781-41.011719c.609375-2.988281-.421875-6.078124-2.707031-8.101562-2.28125-2.019531-5.472656-2.671875-8.363281-1.707031-2.894531.96875-5.054688 3.40625-5.664063 6.394531-3.246094 15.886719-17.222656 27.296875-33.441406 27.296875s-30.195312-11.410156-33.441406-27.296875c-.941406-4.621094-5.453125-7.601562-10.074219-6.660156s-7.601563 5.453125-6.660156 10.074218zm0 0"/></svg>