<svg height="512pt" viewBox="-51 0 512 512.3725" width="512pt" xmlns="http://www.w3.org/2000/svg"><path d="m392.722656 263.371094c8.535156 119.464844-59.734375 110.933594-59.734375 110.933594v10.066406c0 31.6875-12.585937 62.074218-34.988281 84.476562-22.40625 22.40625-52.792969 34.992188-84.476562 34.992188h-17.066407c-65.980469 0-119.46875-53.488282-119.46875-119.46875v-10.066406s-48.042969 5.972656-63.488281-72.707032c-1.277344-6.226562-2.300781-13.054687-3.070312-20.476562-1.183594-11.570313-1.753907-23.191406-1.707032-34.816406.730469-27.914063 13.109375-54.246094 34.132813-72.621094 0-59.21875-1.277344-158.976563 145.066406-164.777344 128.855469-5.035156 175.617187 43.691406 171.4375 84.308594 7.765625 5.035156 70.398437 50.003906 28.328125 146.175781 2.820312 7.710937 4.515625 15.785156 5.035156 23.980469zm0 0" fill="#fdd7ad"/><path d="m332.988281 324.640625v59.730469c0 31.6875-12.585937 62.074218-34.988281 84.476562-22.40625 22.40625-52.792969 34.992188-84.476562 34.992188h-17.066407c-1.449219 0-2.816406 0-4.265625-.085938-64.277344-2.296875-115.195312-55.066406-115.203125-119.382812v-52.734375c18.679688-42.539063 48.011719-79.542969 85.164063-107.433594l16.042968-9.730469 1.878907-1.195312c167.59375 4.183594 152.914062 79.703125 152.914062 111.363281zm0 0" fill="#bfa885"/><path d="m307.390625 324.640625v59.730469c-.003906 64.316406-50.925781 117.085937-115.199219 119.382812-64.277344-2.296875-115.195312-55.066406-115.203125-119.382812v-52.734375c18.679688-42.539063 48.011719-79.542969 85.164063-107.433594l16.042968-9.730469c142.421876 10.410156 129.195313 80.042969 129.195313 110.167969zm0 0" fill="#ffe0b2"/><path d="m332.988281 374.304688v-49.664063c0-31.660156 14.679688-107.179687-152.914062-111.363281h-1.792969c27.589844-21.34375 60.550781-34.632813 95.230469-38.398438 53.417969-4.691406 97.964843 20.566406 114.175781 64.511719 2.820312 7.710937 4.515625 15.785156 5.035156 23.980469 8.535156 119.464844-59.734375 110.933594-59.734375 110.933594zm0 0" fill="#6a1b9a"/><path d="m332.988281 369.183594v-44.542969c0-31.660156 14.679688-107.179687-152.914062-111.363281h-1.792969c27.589844-21.34375 60.550781-34.632813 95.230469-38.398438 42.242187 3.753906 76.03125 27.476563 89.6875 64.511719 2.820312 7.710937 4.515625 15.785156 5.035156 23.980469 5.03125 70.484375-16.640625 96.425781-35.246094 105.8125zm0 0" fill="#9d27b0"/><path d="m359.359375 93.214844-.769531-.511719c-7.984375-3.410156-16.503906-5.402344-25.171875-5.886719-33.621094-3.585937-88.746094 1.277344-144.214844 15.53125-53.246094 13.566406-106.75 35.753906-142.078125 67.410156-1.453125 1.28125-2.816406 2.648438-4.269531 3.925782 0-4.691406 0-9.554688.085937-14.675782.511719-49.664062 7.167969-116.820312 87.039063-141.058593 18.851562-5.472657 38.320312-8.511719 57.941406-9.042969 128.855469-5.035156 175.617187 43.691406 171.4375 84.308594zm0 0" fill="#6a1b9a"/><path d="m333.417969 86.816406c-33.621094-3.585937-88.746094 1.277344-144.214844 15.53125-51.285156 10.496094-105.8125 29.097656-146.261719 56.660156.511719-49.664062 7.167969-116.820312 87.039063-141.058593 10.703125-1.730469 21.507812-2.785157 32.34375-3.15625 116.050781-4.523438 165.460937 34.5625 171.09375 72.023437zm0 0" fill="#9d27b0"/><path d="m387.6875 239.390625c-.851562-2.390625-1.875-4.691406-2.898438-6.910156-3.425781-7.125-7.914062-13.683594-13.3125-19.457031 21.160157-78.082032-30.722656-115.285157-37.71875-119.808594l-.769531-.511719c-5.3125-2.398437-10.945312-4.007813-16.722656-4.777344-6.355469-1.03125-12.769531-1.683593-19.199219-1.964843 7.167969-.253907 13.90625-.339844 20.136719-.167969 8.261719.09375 16.503906.808593 24.660156 2.132812 5.78125.769531 11.414063 2.378907 16.726563 4.777344l.769531.511719c7.765625 5.035156 70.398437 50.003906 28.328125 146.175781zm0 0" fill="#ad1457"/><path d="m371.476562 213.023438c-21.675781-23.46875-57.855468-34.644532-98.390624-31.660157h-.171876c-33.601562 2.992188-66.007812 13.933594-94.546874 31.914063-5.460938 3.328125-10.839844 7-16.214844 10.925781-37.152344 27.890625-66.484375 64.894531-85.164063 107.433594v42.667969c-9.019531.425781-17.957031-1.925782-25.597656-6.742188-13.996094-8.105469-30.125-26.285156-37.890625-65.964844-1.277344-6.226562-2.300781-13.054687-3.070312-20.476562-1.183594-11.570313-1.753907-23.191406-1.707032-34.816406.730469-27.914063 13.109375-54.246094 34.132813-72.621094 1.453125-1.277344 2.816406-2.644532 4.269531-3.925782 60.839844-54.613281 175.957031-81.066406 249.941406-83.796874 6.429688.28125 12.84375.933593 19.199219 1.964843 5.777344.769531 11.410156 2.378907 16.722656 4.777344l.769531.511719c6.996094 4.523437 58.878907 41.726562 37.71875 119.808594zm0 0" fill="#e91e63"/><path d="m368.070312 88.929688c-.144531-16.988282-6.914062-33.253907-18.867187-45.328126-28.9375-30.8125-86.1875-46.25-161.621094-43.230468-151.695312 6.027344-153.257812 111.609375-153.257812 169.925781-21.230469 19.648437-33.550781 47.085937-34.132813 76.007813-.078125 15.992187 1.0625 31.964843 3.410156 47.785156.035157.308594.085938.617187.15625.921875 5.238282 33.210937 16.253907 57.703125 33.21875 72.6875 8.777344 7.96875 19.742188 13.121093 31.480469 14.789062v1.882813c.078125 70.660156 57.339844 127.921875 128 128h17.066407c70.660156-.078125 127.917968-57.339844 128-128v-1.707032c12.660156-1.347656 24.515624-6.855468 33.707031-15.664062 20.785156-19.714844 29.535156-54.761719 26-104.183594-.550781-7.832031-2.042969-15.570312-4.453125-23.042968 38.203125-91.050782-12.503906-138.589844-28.707032-150.84375zm-179.8125-71.492188c94.71875-3.652344 133.714844 22.128906 148.476563 37.855469 6.957031 7.039062 11.703125 15.957031 13.65625 25.660156-4.609375-1.097656-9.28125-1.910156-13.988281-2.441406-42.898438-32.589844-97.636719-45.394531-150.542969-35.214844-3.019531.679687-5.4375 2.941406-6.3125 5.910156s-.074219 6.179688 2.09375 8.390625c2.167969 2.207032 5.363281 3.070313 8.347656 2.253906 38.453125-7.035156 78.15625-.933593 112.726563 17.320313-73.386719 1.613281-186.828125 27.726563-251.222656 77.894531 1.050781-58.183594 12.457031-132.710937 136.765624-137.628906zm-140.382812 337.109375c-9.898438-8.933594-21.113281-26.1875-26.828125-59.132813 36.3125-48.648437 83.039063-88.570312 136.761719-116.839843 4.160156-2.21875 5.734375-7.394531 3.515625-11.554688-2.21875-4.160156-7.390625-5.734375-11.554688-3.515625-50.660156 26.753906-95.433593 63.410156-131.660156 107.792969-.5625-7.679687-.851563-15.972656-.851563-24.992187 0-25.4375 11.945313-49.058594 35.566407-70.195313 70.125-62.953125 215.492187-87.316406 278.355469-81.128906.722656.222656 1.472656.347656 2.226562.367187.15625 0 .300781-.09375.453125-.101562 7.183594.558594 14.230469 2.289062 20.855469 5.121094 6.289062 4.078124 57.0625 39.933593 31.832031 118.066406-16.976563-23.90625-43.109375-39.695313-72.167969-43.605469-80.699218-14.4375-190.71875 33.542969-245.15625 153.308594-.242187.660156-.402344 1.347656-.476562 2.050781-.132813.445312-.226563.902344-.289063 1.363281v33.65625c-7.710937-1.589843-14.835937-5.277343-20.582031-10.660156zm276.582031 29.824219c-.070312 61.238281-49.695312 110.863281-110.933593 110.933594h-17.066407c-61.238281-.070313-110.863281-49.695313-110.933593-110.933594v-50.6875c20.300781-45.695313 53.390624-84.535156 95.28125-111.835938 63.054687 1.707032 105.816406 13.875 126.976562 36.238282 17.996094 19.003906 17.316406 42.199218 16.828125 59.144531-.074219 2.65625-.152344 5.121093-.152344 7.410156zm39.253907-30.019532c-6.050782 5.933594-13.8125 9.8125-22.1875 11.09375v-40.804687c0-2.117187.066406-4.4375.144531-6.921875.546875-18.773438 1.382812-47.214844-21.496094-71.363281-21.179687-22.351563-57.539063-35.507813-110.558594-40.003907 31.71875-14.859374 67.128907-19.980468 101.753907-14.714843 34.3125 6.164062 58.546874 24.75 68.265624 51.109375 2.523438 6.847656 4.058594 14.023437 4.558594 21.304687 3.105469 43.1875-3.96875 74.421875-20.4375 90.300781zm0 0"/><path d="m145.257812 316.105469c-4.714843 0-8.535156 3.820312-8.535156 8.535156v34.132813c0 4.710937 3.820313 8.53125 8.535156 8.53125 4.710938 0 8.53125-3.820313 8.53125-8.53125v-34.132813c0-4.714844-3.820312-8.535156-8.53125-8.535156zm0 0"/><path d="m264.722656 316.105469c-4.710937 0-8.53125 3.820312-8.53125 8.535156v34.132813c0 4.710937 3.820313 8.53125 8.53125 8.53125 4.714844 0 8.535156-3.820313 8.535156-8.53125v-34.132813c0-4.714844-3.820312-8.535156-8.535156-8.535156zm0 0"/><path d="m247.65625 410.144531c-2.21875-.449219-4.523438.003907-6.410156 1.257813-1.886719 1.253906-3.195313 3.203125-3.640625 5.421875-3.238281 15.898437-17.222657 27.320312-33.449219 27.320312-16.222656 0-30.207031-11.421875-33.445312-27.320312-.527344-3.058594-2.671876-5.59375-5.605469-6.613281-2.933594-1.019532-6.191407-.367188-8.503907 1.707031s-3.3125 5.242187-2.617187 8.269531c4.847656 23.863281 25.828125 41.011719 50.179687 41.011719 24.347657 0 45.328126-17.148438 50.175782-41.011719.925781-4.617188-2.066406-9.113281-6.683594-10.042969zm0 0"/></svg>